<mxfile host="Electron" agent="Mozilla/5.0 (Windows NT 10.0; Win64; x64) AppleWebKit/537.36 (KHTML, like Gecko) draw.io/25.0.1 Chrome/128.0.6613.186 Electron/32.2.6 Safari/537.36" version="25.0.1">
  <diagram name="Page-1" id="ukROqQANCz0MhujuUKru">
    <mxGraphModel dx="1151" dy="727" grid="1" gridSize="10" guides="1" tooltips="1" connect="1" arrows="1" fold="1" page="1" pageScale="1" pageWidth="700" pageHeight="1000" math="0" shadow="0">
      <root>
        <mxCell id="0" />
        <mxCell id="1" parent="0" />
        <mxCell id="fLGTEn0iVZkrm3GO__Ro-1" value="Admin" style="rounded=0;whiteSpace=wrap;html=1;labelBackgroundColor=none;fillColor=#FAE5C7;strokeColor=#0F8B8D;fontColor=#143642;" parent="1" vertex="1">
          <mxGeometry x="10" y="360" width="120" height="60" as="geometry" />
        </mxCell>
        <mxCell id="fLGTEn0iVZkrm3GO__Ro-2" value="Teacher" style="rounded=0;whiteSpace=wrap;html=1;labelBackgroundColor=none;fillColor=#FAE5C7;strokeColor=#0F8B8D;fontColor=#143642;" parent="1" vertex="1">
          <mxGeometry x="80" y="200" width="120" height="60" as="geometry" />
        </mxCell>
        <mxCell id="fLGTEn0iVZkrm3GO__Ro-4" value="" style="endArrow=none;html=1;rounded=0;entryX=0.5;entryY=1;entryDx=0;entryDy=0;exitX=0.417;exitY=0.03;exitDx=0;exitDy=0;exitPerimeter=0;labelBackgroundColor=none;strokeColor=#A8201A;fontColor=default;" parent="1" source="fLGTEn0iVZkrm3GO__Ro-1" target="fLGTEn0iVZkrm3GO__Ro-2" edge="1">
          <mxGeometry width="50" height="50" relative="1" as="geometry">
            <mxPoint x="230" y="450" as="sourcePoint" />
            <mxPoint x="280" y="400" as="targetPoint" />
          </mxGeometry>
        </mxCell>
        <mxCell id="fLGTEn0iVZkrm3GO__Ro-5" value="1" style="text;html=1;align=center;verticalAlign=middle;resizable=0;points=[];autosize=1;strokeColor=none;fillColor=none;labelBackgroundColor=none;fontColor=#143642;" parent="1" vertex="1">
          <mxGeometry x="45" y="328" width="30" height="30" as="geometry" />
        </mxCell>
        <mxCell id="fLGTEn0iVZkrm3GO__Ro-6" value="n" style="text;html=1;align=center;verticalAlign=middle;resizable=0;points=[];autosize=1;strokeColor=none;fillColor=none;labelBackgroundColor=none;fontColor=#143642;" parent="1" vertex="1">
          <mxGeometry x="95" y="258" width="30" height="30" as="geometry" />
        </mxCell>
        <mxCell id="fLGTEn0iVZkrm3GO__Ro-7" value="Student" style="rounded=0;whiteSpace=wrap;html=1;labelBackgroundColor=none;fillColor=#FAE5C7;strokeColor=#0F8B8D;fontColor=#143642;" parent="1" vertex="1">
          <mxGeometry x="280" y="200" width="120" height="60" as="geometry" />
        </mxCell>
        <mxCell id="fLGTEn0iVZkrm3GO__Ro-9" value="" style="endArrow=none;html=1;rounded=0;exitX=1;exitY=0.5;exitDx=0;exitDy=0;labelBackgroundColor=none;strokeColor=#A8201A;fontColor=default;" parent="1" source="fLGTEn0iVZkrm3GO__Ro-2" edge="1">
          <mxGeometry width="50" height="50" relative="1" as="geometry">
            <mxPoint x="230" y="280" as="sourcePoint" />
            <mxPoint x="280" y="230" as="targetPoint" />
          </mxGeometry>
        </mxCell>
        <mxCell id="fLGTEn0iVZkrm3GO__Ro-10" value="Grade" style="whiteSpace=wrap;html=1;rounded=0;labelBackgroundColor=none;fillColor=#FAE5C7;strokeColor=#0F8B8D;fontColor=#143642;" parent="1" vertex="1">
          <mxGeometry x="280" y="59.579999999999984" width="120" height="60" as="geometry" />
        </mxCell>
        <mxCell id="fLGTEn0iVZkrm3GO__Ro-29" value="" style="edgeStyle=orthogonalEdgeStyle;rounded=0;orthogonalLoop=1;jettySize=auto;html=1;endArrow=none;labelBackgroundColor=none;strokeColor=#A8201A;fontColor=default;" parent="1" source="fLGTEn0iVZkrm3GO__Ro-13" target="fLGTEn0iVZkrm3GO__Ro-28" edge="1">
          <mxGeometry relative="1" as="geometry" />
        </mxCell>
        <mxCell id="fLGTEn0iVZkrm3GO__Ro-13" value="Subject" style="whiteSpace=wrap;html=1;rounded=0;labelBackgroundColor=none;fillColor=#FAE5C7;strokeColor=#0F8B8D;fontColor=#143642;" parent="1" vertex="1">
          <mxGeometry x="280" y="412" width="120" height="60" as="geometry" />
        </mxCell>
        <mxCell id="fLGTEn0iVZkrm3GO__Ro-15" value="" style="endArrow=none;html=1;rounded=0;entryX=0.5;entryY=1;entryDx=0;entryDy=0;labelBackgroundColor=none;strokeColor=#A8201A;fontColor=default;" parent="1" target="fLGTEn0iVZkrm3GO__Ro-7" edge="1">
          <mxGeometry width="50" height="50" relative="1" as="geometry">
            <mxPoint x="340" y="410" as="sourcePoint" />
            <mxPoint x="370" y="400" as="targetPoint" />
          </mxGeometry>
        </mxCell>
        <mxCell id="fLGTEn0iVZkrm3GO__Ro-16" value="" style="endArrow=none;html=1;rounded=0;exitX=0.833;exitY=1.043;exitDx=0;exitDy=0;exitPerimeter=0;entryX=0;entryY=0.5;entryDx=0;entryDy=0;labelBackgroundColor=none;strokeColor=#A8201A;fontColor=default;" parent="1" target="fLGTEn0iVZkrm3GO__Ro-13" edge="1">
          <mxGeometry width="50" height="50" relative="1" as="geometry">
            <mxPoint x="179.96000000000004" y="260.58000000000004" as="sourcePoint" />
            <mxPoint x="280" y="508" as="targetPoint" />
          </mxGeometry>
        </mxCell>
        <mxCell id="fLGTEn0iVZkrm3GO__Ro-17" value="" style="endArrow=none;html=1;rounded=0;entryX=0.5;entryY=1;entryDx=0;entryDy=0;exitX=0.5;exitY=0;exitDx=0;exitDy=0;labelBackgroundColor=none;strokeColor=#A8201A;fontColor=default;" parent="1" source="fLGTEn0iVZkrm3GO__Ro-7" target="fLGTEn0iVZkrm3GO__Ro-10" edge="1">
          <mxGeometry width="50" height="50" relative="1" as="geometry">
            <mxPoint x="336.3184946551472" y="56.579999999999984" as="sourcePoint" />
            <mxPoint x="284.15999999999997" y="-50.00000000000006" as="targetPoint" />
          </mxGeometry>
        </mxCell>
        <mxCell id="fLGTEn0iVZkrm3GO__Ro-18" value="1" style="text;html=1;align=center;verticalAlign=middle;resizable=0;points=[];autosize=1;strokeColor=none;fillColor=none;labelBackgroundColor=none;fontColor=#143642;" parent="1" vertex="1">
          <mxGeometry x="190" y="258" width="30" height="30" as="geometry" />
        </mxCell>
        <mxCell id="fLGTEn0iVZkrm3GO__Ro-19" value="1" style="text;html=1;align=center;verticalAlign=middle;resizable=0;points=[];autosize=1;strokeColor=none;fillColor=none;labelBackgroundColor=none;fontColor=#143642;" parent="1" vertex="1">
          <mxGeometry x="255" y="380" width="30" height="30" as="geometry" />
        </mxCell>
        <mxCell id="fLGTEn0iVZkrm3GO__Ro-21" value="n" style="text;html=1;align=center;verticalAlign=middle;resizable=0;points=[];autosize=1;strokeColor=none;fillColor=none;labelBackgroundColor=none;fontColor=#143642;" parent="1" vertex="1">
          <mxGeometry x="195" y="198" width="30" height="30" as="geometry" />
        </mxCell>
        <mxCell id="fLGTEn0iVZkrm3GO__Ro-22" value="n" style="text;html=1;align=center;verticalAlign=middle;resizable=0;points=[];autosize=1;strokeColor=none;fillColor=none;labelBackgroundColor=none;fontColor=#143642;" parent="1" vertex="1">
          <mxGeometry x="255" y="198" width="30" height="30" as="geometry" />
        </mxCell>
        <mxCell id="fLGTEn0iVZkrm3GO__Ro-23" value="1" style="text;html=1;align=center;verticalAlign=middle;resizable=0;points=[];autosize=1;strokeColor=none;fillColor=none;labelBackgroundColor=none;fontColor=#143642;" parent="1" vertex="1">
          <mxGeometry x="340" y="119.58" width="30" height="30" as="geometry" />
        </mxCell>
        <mxCell id="fLGTEn0iVZkrm3GO__Ro-25" value="n" style="text;html=1;align=center;verticalAlign=middle;resizable=0;points=[];autosize=1;strokeColor=none;fillColor=none;labelBackgroundColor=none;fontColor=#143642;" parent="1" vertex="1">
          <mxGeometry x="335" y="168" width="30" height="30" as="geometry" />
        </mxCell>
        <mxCell id="fLGTEn0iVZkrm3GO__Ro-26" value="n" style="text;html=1;align=center;verticalAlign=middle;resizable=0;points=[];autosize=1;strokeColor=none;fillColor=none;labelBackgroundColor=none;fontColor=#143642;" parent="1" vertex="1">
          <mxGeometry x="340" y="258" width="30" height="30" as="geometry" />
        </mxCell>
        <mxCell id="fLGTEn0iVZkrm3GO__Ro-27" value="n" style="text;html=1;align=center;verticalAlign=middle;resizable=0;points=[];autosize=1;strokeColor=none;fillColor=none;labelBackgroundColor=none;fontColor=#143642;" parent="1" vertex="1">
          <mxGeometry x="345" y="370" width="30" height="30" as="geometry" />
        </mxCell>
        <mxCell id="fLGTEn0iVZkrm3GO__Ro-28" value="ClassRoom" style="whiteSpace=wrap;html=1;rounded=0;labelBackgroundColor=none;fillColor=#FAE5C7;strokeColor=#0F8B8D;fontColor=#143642;" parent="1" vertex="1">
          <mxGeometry x="480" y="412" width="120" height="60" as="geometry" />
        </mxCell>
        <mxCell id="fLGTEn0iVZkrm3GO__Ro-31" value="n" style="text;html=1;align=center;verticalAlign=middle;resizable=0;points=[];autosize=1;strokeColor=none;fillColor=none;labelBackgroundColor=none;fontColor=#143642;" parent="1" vertex="1">
          <mxGeometry x="395" y="410" width="30" height="30" as="geometry" />
        </mxCell>
        <mxCell id="fLGTEn0iVZkrm3GO__Ro-32" value="1" style="text;html=1;align=center;verticalAlign=middle;resizable=0;points=[];autosize=1;strokeColor=none;fillColor=none;labelBackgroundColor=none;fontColor=#143642;" parent="1" vertex="1">
          <mxGeometry x="445" y="410" width="30" height="30" as="geometry" />
        </mxCell>
      </root>
    </mxGraphModel>
  </diagram>
</mxfile>
